<svg xmlns="http://www.w3.org/2000/svg" viewBox="0 0 344.07 66.23"><defs><style>.cls-1{fill:#f15a29;}</style></defs><g id="Layer_2" data-name="Layer 2"><g id="Layer_1-2" data-name="Layer 1"><path class="cls-1" d="M182.8,0V22.88h-9.55V12.33h0V9.91H162.39v13h-5.08v8.85h5.08V52.29q0,13.24,13.63,13.25h17.71V9.83h36.08V22.39h-20.4v9.2h18V43.51h-18V53.67h20.4V65.54h7.76V9.83h15.68l20.88,31.92V9.83h15.68V65.54h9V9.83h36.08V22.39h-20.4v9.2h18V43.51h-18V53.67h20.4V65.54h9.22V0Zm-5,56.45a5.11,5.11,0,0,1-3.5-1,4.09,4.09,0,0,1-1-3.12V31.73h9.55V56.45Z"/><polygon class="cls-1" points="253.25 65.53 273.67 65.53 253.25 34.71 253.25 65.53"/><polygon class="cls-1" points="33.81 11.79 33.8 11.79 33.8 33.89 10.78 33.89 10.78 9.91 0 9.91 0 65.53 0 65.53 10.78 65.53 10.78 65.53 10.78 42.67 33.8 42.67 33.8 65.53 33.81 65.53 44.59 65.53 44.59 65.53 44.59 9.91 33.81 9.91 33.81 11.79"/><path class="cls-1" d="M86.67,24.8a22.52,22.52,0,0,0-10.9-2.62,22.61,22.61,0,0,0-11.17,2.7,18.77,18.77,0,0,0-7.54,7.7,24.12,24.12,0,0,0-2.7,11.63A23.65,23.65,0,0,0,57.1,55.76a19.22,19.22,0,0,0,7.62,7.73,22.17,22.17,0,0,0,11,2.74,20.65,20.65,0,0,0,12.86-4,19.41,19.41,0,0,0,7.08-10.12H84.09a8.82,8.82,0,0,1-8.55,5.16,10,10,0,0,1-7-2.62,10.59,10.59,0,0,1-3.23-7.24H96.48a24.93,24.93,0,0,0,.31-4.16,22.5,22.5,0,0,0-2.66-11.05A18.47,18.47,0,0,0,86.67,24.8ZM65.37,40.2a10.7,10.7,0,0,1,3.35-6.74A9.83,9.83,0,0,1,75.46,31a10.63,10.63,0,0,1,7.16,2.5,8.59,8.59,0,0,1,3,6.66Z"/><path class="cls-1" d="M137.37,29a16.93,16.93,0,0,0-5.74-4.85,17.42,17.42,0,0,0-8.35-1.93,18.63,18.63,0,0,0-9.9,2.7,18.84,18.84,0,0,0-7,7.7,24.69,24.69,0,0,0-2.58,11.47,25.08,25.08,0,0,0,2.58,11.59,19.37,19.37,0,0,0,7,7.82,18.21,18.21,0,0,0,9.82,2.77,17.55,17.55,0,0,0,8.43-2,16,16,0,0,0,5.74-5v6.24h10.85V22.88H137.37Zm-1.54,22a11,11,0,0,1-4.16,4.32,11.14,11.14,0,0,1-5.62,1.5,10.64,10.64,0,0,1-5.51-1.54,11.39,11.39,0,0,1-4.15-4.43,13.76,13.76,0,0,1-1.58-6.74,13.34,13.34,0,0,1,1.58-6.66,10.82,10.82,0,0,1,9.66-5.73,11.14,11.14,0,0,1,5.62,1.5,10.93,10.93,0,0,1,4.16,4.31,13.9,13.9,0,0,1,1.54,6.74A13.88,13.88,0,0,1,135.83,50.94Z"/></g></g></svg>